<?xml version="1.0" encoding="utf-8"?>
<!-- Generator: Adobe Illustrator 22.1.0, SVG Export Plug-In . SVG Version: 6.00 Build 0)  -->
<svg version="1.1" id="Layer_1" xmlns="http://www.w3.org/2000/svg" xmlns:xlink="http://www.w3.org/1999/xlink" x="0px" y="0px"
	 viewBox="0 0 302 301" style="enable-background:new 0 0 302 301;" xml:space="preserve">
<style type="text/css">
	.st0{fill:#FFFFFF;}
	.st1{fill:#D8D8D8;fill-opacity:0.9;}
	.st2{filter:url(#Adobe_OpacityMaskFilter);}
	.st3{mask:url(#logo-mask_1_);fill:#FF6FAF;}
	.st4{filter:url(#Adobe_OpacityMaskFilter_1_);}
	.st5{mask:url(#logo-mask_2_);fill:#00BC7C;}
	.st6{filter:url(#Adobe_OpacityMaskFilter_2_);}
	.st7{mask:url(#logo-mask_3_);fill:#FE5A61;}
	.st8{filter:url(#Adobe_OpacityMaskFilter_3_);}
	.st9{mask:url(#logo-mask_4_);fill:#40C3F9;}
	.st10{filter:url(#Adobe_OpacityMaskFilter_4_);}
	.st11{mask:url(#logo-mask_5_);fill:#FFC053;}
	.st12{filter:url(#Adobe_OpacityMaskFilter_5_);}
	.st13{mask:url(#logo-mask_6_);fill-opacity:9.000000e-02;}
	.st14{fill:#4A5560;}
</style>
<g>
	<circle class="st0" cx="157" cy="143" r="98"/>
	<g id="Mask">
		<path id="logo-path_1_" class="st1" d="M152,300C69.2,300,2,232.8,2,150S69.2,0,152,0s150,67.2,150,150S234.8,300,152,300z
			 M152.5,225c41.7,0,75.5-33.8,75.5-75.5S194.2,74,152.5,74S77,107.8,77,149.5S110.8,225,152.5,225z"/>
	</g>
	<defs>
		<filter id="Adobe_OpacityMaskFilter" filterUnits="userSpaceOnUse" x="152" y="-18.7" width="168.9" height="168.7">
			<feColorMatrix  type="matrix" values="1 0 0 0 0  0 1 0 0 0  0 0 1 0 0  0 0 0 1 0"/>
		</filter>
	</defs>
	<mask maskUnits="userSpaceOnUse" x="152" y="-18.7" width="168.9" height="168.7" id="logo-mask_1_">
		<g class="st2">
			<path id="logo-path_2_" class="st0" d="M152,300C69.2,300,2,232.8,2,150S69.2,0,152,0s150,67.2,150,150S234.8,300,152,300z
				 M152.5,225c41.7,0,75.5-33.8,75.5-75.5S194.2,74,152.5,74S77,107.8,77,149.5S110.8,225,152.5,225z"/>
		</g>
	</mask>
	<polygon class="st3" points="152,-6.8 152,150 320.9,32.9 190.4,-18.7 	"/>
	<defs>
		<filter id="Adobe_OpacityMaskFilter_1_" filterUnits="userSpaceOnUse" x="151.8" y="37" width="160.6" height="243.5">
			<feColorMatrix  type="matrix" values="1 0 0 0 0  0 1 0 0 0  0 0 1 0 0  0 0 0 1 0"/>
		</filter>
	</defs>
	<mask maskUnits="userSpaceOnUse" x="151.8" y="37" width="160.6" height="243.5" id="logo-mask_2_">
		<g class="st4">
			<path id="logo-path_3_" class="st0" d="M152,300C69.2,300,2,232.8,2,150S69.2,0,152,0s150,67.2,150,150S234.8,300,152,300z
				 M152.5,225c41.7,0,75.5-33.8,75.5-75.5S194.2,74,152.5,74S77,107.8,77,149.5S110.8,225,152.5,225z"/>
		</g>
	</mask>
	<polygon class="st5" points="151.8,149.2 312.4,37 311.5,179.3 271,280.5 240.6,273.4 	"/>
	<defs>
		<filter id="Adobe_OpacityMaskFilter_2_" filterUnits="userSpaceOnUse" x="72.4" y="149.7" width="186.3" height="162.6">
			<feColorMatrix  type="matrix" values="1 0 0 0 0  0 1 0 0 0  0 0 1 0 0  0 0 0 1 0"/>
		</filter>
	</defs>
	<mask maskUnits="userSpaceOnUse" x="72.4" y="149.7" width="186.3" height="162.6" id="logo-mask_3_">
		<g class="st6">
			<path id="logo-path_4_" class="st0" d="M152,300C69.2,300,2,232.8,2,150S69.2,0,152,0s150,67.2,150,150S234.8,300,152,300z
				 M152.5,225c41.7,0,75.5-33.8,75.5-75.5S194.2,74,152.5,74S77,107.8,77,149.5S110.8,225,152.5,225z"/>
		</g>
	</mask>
	<polygon class="st7" points="151.8,149.7 258.7,293.4 152.8,312.2 72.4,287.8 	"/>
	<defs>
		<filter id="Adobe_OpacityMaskFilter_3_" filterUnits="userSpaceOnUse" x="-1.2" y="149.8" width="153.8" height="151.2">
			<feColorMatrix  type="matrix" values="1 0 0 0 0  0 1 0 0 0  0 0 1 0 0  0 0 0 1 0"/>
		</filter>
	</defs>
	<mask maskUnits="userSpaceOnUse" x="-1.2" y="149.8" width="153.8" height="151.2" id="logo-mask_4_">
		<g class="st8">
			<path id="logo-path_5_" class="st0" d="M152,300C69.2,300,2,232.8,2,150S69.2,0,152,0s150,67.2,150,150S234.8,300,152,300z
				 M152.5,225c41.7,0,75.5-33.8,75.5-75.5S194.2,74,152.5,74S77,107.8,77,149.5S110.8,225,152.5,225z"/>
		</g>
	</mask>
	<polygon class="st9" points="152.6,149.8 69.4,301 -1.2,227.3 1.7,187 	"/>
	<defs>
		<filter id="Adobe_OpacityMaskFilter_4_" filterUnits="userSpaceOnUse" x="-29.1" y="-13" width="181.2" height="211.2">
			<feColorMatrix  type="matrix" values="1 0 0 0 0  0 1 0 0 0  0 0 1 0 0  0 0 0 1 0"/>
		</filter>
	</defs>
	<mask maskUnits="userSpaceOnUse" x="-29.1" y="-13" width="181.2" height="211.2" id="logo-mask_5_">
		<g class="st10">
			<path id="logo-path_6_" class="st0" d="M152,300C69.2,300,2,232.8,2,150S69.2,0,152,0s150,67.2,150,150S234.8,300,152,300z
				 M152.5,225c41.7,0,75.5-33.8,75.5-75.5S194.2,74,152.5,74S77,107.8,77,149.5S110.8,225,152.5,225z"/>
		</g>
	</mask>
	<polygon class="st11" points="151.6,149.9 -29.1,198.2 -8.9,91.8 58.3,4.5 152.2,-13 	"/>
	<defs>
		<filter id="Adobe_OpacityMaskFilter_5_" filterUnits="userSpaceOnUse" x="59" y="57" width="186" height="186">
			<feColorMatrix  type="matrix" values="1 0 0 0 0  0 1 0 0 0  0 0 1 0 0  0 0 0 1 0"/>
		</filter>
	</defs>
	<mask maskUnits="userSpaceOnUse" x="59" y="57" width="186" height="186" id="logo-mask_6_">
		<g class="st12">
			<path id="logo-path_7_" class="st0" d="M152,300C69.2,300,2,232.8,2,150S69.2,0,152,0s150,67.2,150,150S234.8,300,152,300z
				 M152.5,225c41.7,0,75.5-33.8,75.5-75.5S194.2,74,152.5,74S77,107.8,77,149.5S110.8,225,152.5,225z"/>
		</g>
	</mask>
	<circle class="st13" cx="152" cy="150" r="93"/>
	<path id="dolar" class="st14" d="M156.8,143.1c16.3,4.5,22.2,8.9,22.2,22.1c0,15.3-8.5,22.8-21.3,24.2l0,9.2h-11.1v-9.3
		c-9.1-0.8-18.9-2.7-18.9-2.7l1.2-10.1c0,0,15.3,2,23.3,2c9.6,0,14-4.3,14-12.5c0-6.6-3.5-8.9-15.4-11.7c-16.7-4.3-24-9.4-24-22.9
		c0-13.9,8.1-20.6,20.8-21.9V101h11.1v8.6c8.9,0.7,18.4,2.5,18.4,2.5l-1,10.2c0,0-15.8-1.8-22.4-1.8c-9.5,0-14.4,3.4-14.4,10.1
		C139.5,137.8,143.6,139.5,156.8,143.1L156.8,143.1z"/>
</g>
</svg>
