<svg xmlns="http://www.w3.org/2000/svg" xmlns:xlink="http://www.w3.org/1999/xlink" id="Layer_1" x="0" y="0" enable-background="new 0 0 302 301" version="1.1" viewBox="0 0 302 301" xml:space="preserve"><style type="text/css">.st0{fill:#fff}.st1{fill:#d8d8d8;fill-opacity:.9}.st2{filter:url(#Adobe_OpacityMaskFilter)}.st3{mask:url(#logo-mask_1_);fill:#ff6faf}.st4{filter:url(#Adobe_OpacityMaskFilter_1_)}.st5{mask:url(#logo-mask_2_);fill:#00bc7c}.st6{filter:url(#Adobe_OpacityMaskFilter_2_)}.st7{mask:url(#logo-mask_3_);fill:#fe5a61}.st8{filter:url(#Adobe_OpacityMaskFilter_3_)}.st9{mask:url(#logo-mask_4_);fill:#40c3f9}.st10{filter:url(#Adobe_OpacityMaskFilter_4_)}.st11{mask:url(#logo-mask_5_);fill:#ffc053}.st12{filter:url(#Adobe_OpacityMaskFilter_5_)}.st13{mask:url(#logo-mask_6_);fill-opacity:9.000000e-02}.st14{fill:#4a5560}</style><g><circle cx="157" cy="143" r="98" class="st0"/><g id="Mask"><path id="logo-path_1_" d="M152,300C69.2,300,2,232.8,2,150S69.2,0,152,0s150,67.2,150,150S234.8,300,152,300z M152.5,225c41.7,0,75.5-33.8,75.5-75.5S194.2,74,152.5,74S77,107.8,77,149.5S110.8,225,152.5,225z" class="st1"/></g><defs><filter id="Adobe_OpacityMaskFilter" width="168.9" height="168.7" x="152" y="-18.7" filterUnits="userSpaceOnUse"><feColorMatrix type="matrix" values="1 0 0 0 0 0 1 0 0 0 0 0 1 0 0 0 0 0 1 0"/></filter></defs><mask id="logo-mask_1_" width="168.9" height="168.7" x="152" y="-18.7" maskUnits="userSpaceOnUse"><g class="st2"><path id="logo-path_2_" d="M152,300C69.2,300,2,232.8,2,150S69.2,0,152,0s150,67.2,150,150S234.8,300,152,300z M152.5,225c41.7,0,75.5-33.8,75.5-75.5S194.2,74,152.5,74S77,107.8,77,149.5S110.8,225,152.5,225z" class="st0"/></g></mask><polygon points="152 -6.8 152 150 320.9 32.9 190.4 -18.7" class="st3"/><defs><filter id="Adobe_OpacityMaskFilter_1_" width="160.6" height="243.5" x="151.8" y="37" filterUnits="userSpaceOnUse"><feColorMatrix type="matrix" values="1 0 0 0 0 0 1 0 0 0 0 0 1 0 0 0 0 0 1 0"/></filter></defs><mask id="logo-mask_2_" width="160.6" height="243.5" x="151.8" y="37" maskUnits="userSpaceOnUse"><g class="st4"><path id="logo-path_3_" d="M152,300C69.2,300,2,232.8,2,150S69.2,0,152,0s150,67.2,150,150S234.8,300,152,300z M152.5,225c41.7,0,75.5-33.8,75.5-75.5S194.2,74,152.5,74S77,107.8,77,149.5S110.8,225,152.5,225z" class="st0"/></g></mask><polygon points="151.8 149.2 312.4 37 311.5 179.3 271 280.5 240.6 273.4" class="st5"/><defs><filter id="Adobe_OpacityMaskFilter_2_" width="186.3" height="162.6" x="72.4" y="149.7" filterUnits="userSpaceOnUse"><feColorMatrix type="matrix" values="1 0 0 0 0 0 1 0 0 0 0 0 1 0 0 0 0 0 1 0"/></filter></defs><mask id="logo-mask_3_" width="186.3" height="162.6" x="72.4" y="149.7" maskUnits="userSpaceOnUse"><g class="st6"><path id="logo-path_4_" d="M152,300C69.2,300,2,232.8,2,150S69.2,0,152,0s150,67.2,150,150S234.8,300,152,300z M152.5,225c41.7,0,75.5-33.8,75.5-75.5S194.2,74,152.5,74S77,107.8,77,149.5S110.8,225,152.5,225z" class="st0"/></g></mask><polygon points="151.8 149.7 258.7 293.4 152.8 312.2 72.4 287.8" class="st7"/><defs><filter id="Adobe_OpacityMaskFilter_3_" width="153.8" height="151.2" x="-1.2" y="149.8" filterUnits="userSpaceOnUse"><feColorMatrix type="matrix" values="1 0 0 0 0 0 1 0 0 0 0 0 1 0 0 0 0 0 1 0"/></filter></defs><mask id="logo-mask_4_" width="153.8" height="151.2" x="-1.2" y="149.8" maskUnits="userSpaceOnUse"><g class="st8"><path id="logo-path_5_" d="M152,300C69.2,300,2,232.8,2,150S69.2,0,152,0s150,67.2,150,150S234.8,300,152,300z M152.5,225c41.7,0,75.5-33.8,75.5-75.5S194.2,74,152.5,74S77,107.8,77,149.5S110.8,225,152.5,225z" class="st0"/></g></mask><polygon points="152.6 149.8 69.4 301 -1.2 227.3 1.7 187" class="st9"/><defs><filter id="Adobe_OpacityMaskFilter_4_" width="181.2" height="211.2" x="-29.1" y="-13" filterUnits="userSpaceOnUse"><feColorMatrix type="matrix" values="1 0 0 0 0 0 1 0 0 0 0 0 1 0 0 0 0 0 1 0"/></filter></defs><mask id="logo-mask_5_" width="181.2" height="211.2" x="-29.1" y="-13" maskUnits="userSpaceOnUse"><g class="st10"><path id="logo-path_6_" d="M152,300C69.2,300,2,232.8,2,150S69.2,0,152,0s150,67.2,150,150S234.8,300,152,300z M152.5,225c41.7,0,75.5-33.8,75.5-75.5S194.2,74,152.5,74S77,107.8,77,149.5S110.8,225,152.5,225z" class="st0"/></g></mask><polygon points="151.6 149.9 -29.1 198.2 -8.9 91.8 58.3 4.5 152.2 -13" class="st11"/><defs><filter id="Adobe_OpacityMaskFilter_5_" width="186" height="186" x="59" y="57" filterUnits="userSpaceOnUse"><feColorMatrix type="matrix" values="1 0 0 0 0 0 1 0 0 0 0 0 1 0 0 0 0 0 1 0"/></filter></defs><mask id="logo-mask_6_" width="186" height="186" x="59" y="57" maskUnits="userSpaceOnUse"><g class="st12"><path id="logo-path_7_" d="M152,300C69.2,300,2,232.8,2,150S69.2,0,152,0s150,67.2,150,150S234.8,300,152,300z M152.5,225c41.7,0,75.5-33.8,75.5-75.5S194.2,74,152.5,74S77,107.8,77,149.5S110.8,225,152.5,225z" class="st0"/></g></mask><circle cx="152" cy="150" r="93" class="st13"/><path id="dolar" d="M156.8,143.1c16.3,4.5,22.2,8.9,22.2,22.1c0,15.3-8.5,22.8-21.3,24.2l0,9.2h-11.1v-9.3 c-9.1-0.8-18.9-2.7-18.9-2.7l1.2-10.1c0,0,15.3,2,23.3,2c9.6,0,14-4.3,14-12.5c0-6.6-3.5-8.9-15.4-11.7c-16.7-4.3-24-9.4-24-22.9 c0-13.9,8.1-20.6,20.8-21.9V101h11.1v8.6c8.9,0.7,18.4,2.5,18.4,2.5l-1,10.2c0,0-15.8-1.8-22.4-1.8c-9.5,0-14.4,3.4-14.4,10.1 C139.5,137.8,143.6,139.5,156.8,143.1L156.8,143.1z" class="st14"/></g></svg>